<!DOCTYPE svg PUBLIC "-//W3C//DTD SVG 1.1//EN" "http://www.w3.org/Graphics/SVG/1.1/DTD/svg11.dtd">
<!-- Uploaded to: SVG Repo, www.svgrepo.com, Transformed by: SVG Repo Mixer Tools -->
<svg width="800px" height="800px" viewBox="-3.84 -3.84 31.68 31.68" fill="none" xmlns="http://www.w3.org/2000/svg" stroke="#000000" stroke-width="0.40800000000000003">
<g id="SVGRepo_bgCarrier" stroke-width="0" transform="translate(0.7200000000000006,0.7200000000000006), scale(0.94)">
<path transform="translate(-3.84, -3.84), scale(0.99)" d="M16,31.680758298840374C18.75489399231094,31.620658064018286,18.363405657950658,26.429355673972495,20.76007815026258,25.069571164687314C23.03199360909783,23.780569243381983,26.39882498885013,26.199889452358946,28.468660838688912,24.606495163444364C30.37389991941556,23.139810222953475,29.90631359821887,20.10878308885089,30.28793281131187,17.7348691380959C30.68220403011305,15.282251673929611,32.038500221384965,12.530220002615485,30.751549866396097,10.40547507597077C29.41441448250285,8.197875060825757,26.070770799787994,8.46082417283646,23.86197552803329,7.125664141528723C22.10938093030527,6.066265704790226,20.89898028519911,4.372255471068079,19.112955385074308,3.3702435310775414C16.914170938185954,2.1366614745823234,14.63325419447822,-0.07722799777433886,12.200046499205019,0.5829826092658479C9.750254795564809,1.247693012296493,9.488928170565002,4.822642499186715,7.582667832908232,6.498796082901007C5.6665888766708425,8.18358306909235,1.7099388911932767,7.871074716543237,1.0951968777484051,10.347353782456693C0.4461919644204241,12.961649284309814,4.195029321688454,14.746406807131917,4.8890514255961985,17.34911341138465C5.452407814527486,19.461800292340737,3.3329578648968656,22.0918189937344,4.685095752628323,23.810114489414573C6.067724267641006,25.56715744420611,9.294219241132065,24.00293789981525,11.129655254325945,25.279666609048228C13.363080467302316,26.833236479549896,13.280028220492563,31.740096677418318,16,31.680758298840374" fill="#8f0f0f" strokewidth="0"/>
</g>
<g id="SVGRepo_tracerCarrier" stroke-linecap="round" stroke-linejoin="round"/>
<g id="SVGRepo_iconCarrier"> <path fill-rule="evenodd" clip-rule="evenodd" d="M7.84308 3.80211C9.8718 2.6007 10.8862 2 12 2C13.1138 2 14.1282 2.6007 16.1569 3.80211L16.8431 4.20846C18.8718 5.40987 19.8862 6.01057 20.4431 7C21 7.98943 21 9.19084 21 11.5937V12.4063C21 14.8092 21 16.0106 20.4431 17C19.8862 17.9894 18.8718 18.5901 16.8431 19.7915L16.1569 20.1979C14.1282 21.3993 13.1138 22 12 22C10.8862 22 9.8718 21.3993 7.84308 20.1979L7.15692 19.7915C5.1282 18.5901 4.11384 17.9894 3.55692 17C3 16.0106 3 14.8092 3 12.4063V11.5937C3 9.19084 3 7.98943 3.55692 7C4.11384 6.01057 5.1282 5.40987 7.15692 4.20846L7.84308 3.80211ZM13 16C13 16.5523 12.5523 17 12 17C11.4477 17 11 16.5523 11 16C11 15.4477 11.4477 15 12 15C12.5523 15 13 15.4477 13 16ZM12 6.25C12.4142 6.25 12.75 6.58579 12.75 7V13C12.75 13.4142 12.4142 13.75 12 13.75C11.5858 13.75 11.25 13.4142 11.25 13V7C11.25 6.58579 11.5858 6.25 12 6.25Z" fill="#ffea00"/> </g>
</svg>